<svg width="546" height="115" fill="none" xmlns="http://www.w3.org/2000/svg"><mask id="a" style="mask-type:alpha" maskUnits="userSpaceOnUse" x="0" y="0" width="214" height="35"><path d="M0 .886h213.338v33.87H0V.886Z" fill="#fff"/></mask><g mask="url(#a)"><path fill-rule="evenodd" clip-rule="evenodd" d="M213.339 21.008c0 7.578-6.16 13.75-13.726 13.75H0v-5.271H138.46c4.67 0 8.465-3.832 8.465-8.48v-6.961c0-4.678-3.795-8.482-8.465-8.482H0V.886h199.613c7.566 0 13.726 6.174 13.726 13.724v6.398Z" fill="#FF89FF"/></g><mask id="b" style="mask-type:alpha" maskUnits="userSpaceOnUse" x="0" y="39" width="214" height="35"><path d="M0 39.292h213.338v33.897H0V39.292Z" fill="#fff"/></mask><g mask="url(#b)"><path fill-rule="evenodd" clip-rule="evenodd" d="M213.338 53.042v6.397c0 7.55-6.161 13.75-13.727 13.75H-.002v-5.297h110.019c4.359 0 7.904-3.58 7.904-7.917v-8.088c0-4.34-3.545-7.918-7.904-7.918H-.002v-4.677h199.613c7.566 0 13.727 6.2 13.727 13.75Z" fill="url(#c)"/></g><mask id="d" style="mask-type:alpha" maskUnits="userSpaceOnUse" x="0" y="80" width="214" height="35"><path d="M0 80.46h213.338v33.897H0V80.46Z" fill="#fff"/></mask><g mask="url(#d)"><path fill-rule="evenodd" clip-rule="evenodd" d="M213.338 94.21v6.397c0 7.551-6.161 13.75-13.727 13.75H-.002v-5.297h80.96c4.024 0 7.286-3.298 7.286-7.3v-9.327c0-3.999-3.262-7.295-7.286-7.295H-.002V80.46h199.613c7.566 0 13.727 6.2 13.727 13.75Z" fill="#FC63FF"/></g><path d="M274.853 29h-3.879V8.908h-.132l-8.23 19.884h-3.141l-8.248-19.884h-.133V29h-3.859V1.7h4.9l8.835 21.549h.151l8.817-21.55h4.919V29ZM291.691 1.246c3.922 0 7.031 1.267 9.327 3.802 2.308 2.536 3.462 5.973 3.462 10.311 0 4.34-1.148 7.776-3.443 10.311-2.296 2.523-5.411 3.784-9.346 3.784-3.936 0-7.051-1.261-9.346-3.784-2.296-2.535-3.444-5.972-3.444-10.31 0-4.34 1.148-7.776 3.444-10.312 2.295-2.535 5.41-3.802 9.346-3.802Zm0 3.727c-2.599 0-4.661.933-6.187 2.8-1.513 1.866-2.27 4.395-2.27 7.586 0 3.179.757 5.701 2.27 7.568 1.526 1.867 3.588 2.8 6.187 2.8 2.585 0 4.635-.933 6.148-2.8 1.526-1.867 2.29-4.39 2.29-7.568 0-3.19-.764-5.72-2.29-7.586-1.513-1.867-3.563-2.8-6.148-2.8ZM307.318 21.395h4.181c.151 1.35.826 2.434 2.024 3.254 1.198.82 2.699 1.23 4.503 1.23 1.715 0 3.128-.398 4.238-1.193 1.122-.794 1.684-1.803 1.684-3.027 0-1.06-.398-1.923-1.192-2.592-.795-.68-2.075-1.236-3.841-1.664l-3.538-.852c-2.51-.605-4.364-1.507-5.562-2.705-1.185-1.198-1.778-2.75-1.778-4.654 0-2.346.92-4.257 2.762-5.733 1.854-1.476 4.244-2.213 7.17-2.213 2.876 0 5.222.737 7.038 2.213 1.816 1.463 2.756 3.374 2.819 5.733h-4.124c-.126-1.35-.713-2.416-1.76-3.198-1.034-.782-2.377-1.173-4.029-1.173-1.64 0-2.977.379-4.011 1.135-1.022.757-1.533 1.741-1.533 2.952 0 .958.385 1.747 1.154 2.365.77.605 2.037 1.129 3.803 1.57l3.008.738c2.8.656 4.818 1.583 6.054 2.781 1.249 1.186 1.873 2.781 1.873 4.787 0 2.547-.946 4.572-2.838 6.073-1.891 1.488-4.458 2.232-7.7 2.232-3.039 0-5.505-.725-7.397-2.176-1.879-1.463-2.882-3.424-3.008-5.883ZM343.075 29h-4.238V5.351h-8.362V1.7h20.943V5.35h-8.343V29ZM258.185 112.611h-10.954v-27.3h10.897c2.422 0 4.364.624 5.827 1.872 1.463 1.236 2.195 2.882 2.195 4.938 0 1.45-.473 2.75-1.419 3.898-.934 1.135-2.081 1.816-3.443 2.043v.151c1.866.215 3.367.934 4.502 2.157 1.135 1.211 1.703 2.718 1.703 4.522 0 2.409-.826 4.301-2.478 5.675-1.653 1.363-3.929 2.044-6.83 2.044Zm-6.717-23.838v8.154h4.749c1.829 0 3.235-.366 4.219-1.098.984-.731 1.476-1.772 1.476-3.121 0-1.261-.416-2.233-1.249-2.914-.832-.68-2.018-1.021-3.557-1.021h-5.638Zm0 20.376h5.846c1.905 0 3.355-.385 4.352-1.155.996-.769 1.495-1.891 1.495-3.367 0-2.977-2.031-4.465-6.092-4.465h-5.601v8.987ZM282.95 84.856c3.923 0 7.032 1.268 9.327 3.803 2.308 2.535 3.462 5.972 3.462 10.311 0 4.339-1.147 7.776-3.443 10.311-2.296 2.522-5.411 3.784-9.346 3.784-3.935 0-7.051-1.262-9.346-3.784-2.296-2.535-3.443-5.972-3.443-10.311 0-4.339 1.147-7.776 3.443-10.31 2.295-2.536 5.411-3.804 9.346-3.804Zm0 3.727c-2.598 0-4.66.934-6.187 2.8-1.513 1.867-2.27 4.396-2.27 7.587 0 3.178.757 5.701 2.27 7.568 1.527 1.866 3.589 2.8 6.187 2.8 2.586 0 4.635-.934 6.149-2.8 1.526-1.867 2.289-4.39 2.289-7.568 0-3.191-.763-5.72-2.289-7.587-1.514-1.866-3.563-2.8-6.149-2.8ZM311.594 84.856c3.922 0 7.031 1.268 9.327 3.803 2.308 2.535 3.462 5.972 3.462 10.311 0 4.339-1.148 7.776-3.443 10.311-2.296 2.522-5.411 3.784-9.346 3.784-3.936 0-7.051-1.262-9.347-3.784-2.295-2.535-3.443-5.972-3.443-10.311 0-4.339 1.148-7.776 3.443-10.31 2.296-2.536 5.411-3.804 9.347-3.804Zm0 3.727c-2.599 0-4.661.934-6.187 2.8-1.514 1.867-2.27 4.396-2.27 7.587 0 3.178.756 5.701 2.27 7.568 1.526 1.866 3.588 2.8 6.187 2.8 2.585 0 4.635-.934 6.148-2.8 1.526-1.867 2.289-4.39 2.289-7.568 0-3.191-.763-5.72-2.289-7.587-1.513-1.866-3.563-2.8-6.148-2.8ZM332.669 112.611h-4.237v-27.3h4.237v12.997h.171l11.408-12.998h5.032L338.459 97.4l11.73 15.211h-5.26l-9.46-12.298-2.8 3.198v9.1ZM351.626 105.005h4.182c.151 1.35.826 2.434 2.024 3.254 1.198.82 2.699 1.23 4.503 1.23 1.715 0 3.128-.397 4.238-1.192 1.122-.794 1.683-1.803 1.683-3.027 0-1.059-.397-1.923-1.192-2.592-.794-.681-2.074-1.236-3.84-1.665l-3.538-.851c-2.51-.606-4.364-1.507-5.562-2.706-1.186-1.198-1.779-2.75-1.779-4.654 0-2.346.921-4.256 2.763-5.732 1.854-1.476 4.244-2.214 7.17-2.214 2.876 0 5.222.738 7.038 2.214 1.816 1.463 2.756 3.374 2.819 5.732h-4.125c-.126-1.35-.712-2.415-1.759-3.197-1.034-.782-2.378-1.173-4.03-1.173-1.639 0-2.976.378-4.011 1.135-1.021.757-1.532 1.74-1.532 2.952 0 .958.385 1.746 1.154 2.364.769.606 2.037 1.13 3.803 1.57l3.008.739c2.8.656 4.818 1.583 6.054 2.78 1.249 1.186 1.873 2.782 1.873 4.787 0 2.548-.946 4.572-2.838 6.073-1.892 1.489-4.459 2.233-7.7 2.233-3.04 0-5.505-.725-7.397-2.176-1.88-1.463-2.882-3.424-3.009-5.884ZM253.72 47.726v7.757h4.067c1.274 0 2.271-.347 2.99-1.04.719-.694 1.078-1.634 1.078-2.82 0-1.173-.372-2.112-1.116-2.819-.744-.719-1.734-1.078-2.97-1.078h-4.049Zm0 12.505v9.555h-6.944v-27.3h11.693c3.38 0 5.972.788 7.775 2.364 1.804 1.577 2.706 3.79 2.706 6.64 0 1.716-.416 3.274-1.249 4.674a7.304 7.304 0 0 1-3.424 3.046l5.467 10.576h-7.794l-4.692-9.555h-3.538ZM291.142 64.186v5.6h-18.711v-27.3h18.711v5.6h-11.768v5.43h11.068v5.107h-11.068v5.563h11.768ZM307.564 70.259c-4.112 0-7.354-1.243-9.725-3.727-2.358-2.498-3.538-5.966-3.538-10.406 0-4.427 1.186-7.883 3.557-10.368 2.371-2.497 5.607-3.746 9.706-3.746 2.283 0 4.351.46 6.205 1.382 1.854.908 3.324 2.194 4.408 3.859 1.098 1.652 1.678 3.538 1.741 5.657h-6.679c-.164-1.602-.769-2.888-1.816-3.86-1.047-.983-2.333-1.475-3.859-1.475-1.905 0-3.412.763-4.522 2.289-1.11 1.526-1.665 3.607-1.665 6.243 0 2.674.555 4.774 1.665 6.3 1.11 1.526 2.623 2.29 4.541 2.29 1.526 0 2.8-.467 3.821-1.4 1.035-.934 1.659-2.201 1.873-3.803h6.679c-.164 3.228-1.388 5.833-3.671 7.813-2.282 1.968-5.19 2.952-8.721 2.952ZM326.086 45.815c2.434-2.535 5.719-3.803 9.856-3.803s7.417 1.268 9.838 3.803c2.422 2.535 3.633 5.979 3.633 10.33s-1.211 7.795-3.633 10.33c-2.421 2.522-5.701 3.784-9.838 3.784-4.149 0-7.435-1.262-9.856-3.784-2.422-2.535-3.633-5.979-3.633-10.33s1.211-7.795 3.633-10.33Zm14.511 4.143c-1.161-1.538-2.712-2.308-4.655-2.308-1.942 0-3.5.77-4.673 2.308-1.16 1.526-1.74 3.589-1.74 6.187 0 2.586.58 4.648 1.74 6.186 1.161 1.527 2.718 2.29 4.673 2.29 1.943 0 3.494-.763 4.655-2.29 1.173-1.538 1.759-3.6 1.759-6.186 0-2.598-.586-4.66-1.759-6.187ZM382.767 69.786h-6.111V52.739h-.132l-6.754 16.763h-3.973l-6.735-16.762h-.152v17.046h-6.111v-27.3h8.022l6.887 17.537h.151l6.887-17.538h8.021v27.3ZM416.86 69.786h-6.111V52.739h-.133l-6.754 16.763h-3.973l-6.735-16.762h-.151v17.046h-6.111v-27.3h8.021l6.887 17.537h.151l6.887-17.538h8.022v27.3ZM439.695 64.186v5.6h-18.711v-27.3h18.711v5.6h-11.768v5.43h11.068v5.107h-11.068v5.563h11.768ZM450.195 69.786h-6.584v-27.3h5.544l11.578 15.873h.152V42.484h6.583v27.3h-5.486l-11.635-16.024h-.152v16.025ZM471.612 42.485h11.086c4.15 0 7.366 1.167 9.649 3.5 2.296 2.334 3.443 5.663 3.443 9.99 0 4.351-1.154 7.744-3.462 10.178-2.295 2.422-5.505 3.633-9.63 3.633h-11.086v-27.3Zm6.943 5.6v16.1h3.235c2.27 0 3.992-.687 5.165-2.062 1.186-1.374 1.778-3.418 1.778-6.13 0-2.547-.605-4.502-1.816-5.864s-2.92-2.044-5.127-2.044h-3.235ZM517.869 64.186v5.6h-18.711v-27.3h18.711v5.6h-11.768v5.43h11.068v5.107h-11.068v5.563h11.768ZM521.785 42.485h11.087c4.149 0 7.366 1.167 9.649 3.5 2.295 2.334 3.443 5.663 3.443 9.99 0 4.351-1.154 7.744-3.462 10.178-2.296 2.422-5.506 3.633-9.63 3.633h-11.087v-27.3Zm6.944 5.6v16.1h3.235c2.27 0 3.992-.687 5.165-2.062 1.185-1.374 1.778-3.418 1.778-6.13 0-2.547-.605-4.502-1.816-5.864s-2.92-2.044-5.127-2.044h-3.235Z" fill="#000"/><defs><linearGradient id="c" x1="106.551" y1="73.143" x2="106.551" y2="38.073" gradientUnits="userSpaceOnUse"><stop offset="0" stop-color="#FC63FF"/><stop offset="1" stop-color="#FF89FF"/></linearGradient></defs></svg>
